<?xml version="1.0" encoding="iso-8859-1"?>
<!-- Uploaded to: SVG Repo, www.svgrepo.com, Generator: SVG Repo Mixer Tools -->
<!DOCTYPE svg PUBLIC "-//W3C//DTD SVG 1.1//EN" "http://www.w3.org/Graphics/SVG/1.1/DTD/svg11.dtd">
<svg fill="#0AF65A" height="800px" width="800px" version="1.1" id="Capa_1" xmlns="http://www.w3.org/2000/svg" xmlns:xlink="http://www.w3.org/1999/xlink"
	 viewBox="0 0 209.647 209.647" xml:space="preserve">
<path d="M187.331,88.403c1.293-2.572,2.038-5.463,2.038-8.532v-0.76c0-4.512-1.582-8.657-4.21-11.927V35.732H24.487v30.545
	c-2.62,3.083-4.21,7.066-4.21,11.42v2.174c0,3.069,0.746,5.961,2.038,8.532H0v62.751v4v18.762h8v-18.762h193.647v18.762h8v-18.762
	v-4V88.403H187.331z M126.96,88.403c-2.453-2.035-4.018-5.104-4.018-8.532v-2.174c0-5.331,4.338-9.669,9.669-9.669h37.675
	c6.112,0,11.084,4.972,11.084,11.083v0.76c0,3.428-1.566,6.497-4.018,8.532H126.96z M94.56,76.854h20.424
	c-0.013,0.281-0.043,0.558-0.043,0.843v2.174c0,3.069,0.746,5.961,2.038,8.532H92.667c1.293-2.572,2.038-5.463,2.038-8.532v-0.76
	C94.706,78.346,94.648,77.595,94.56,76.854z M28.277,79.87v-2.174c0-5.331,4.338-9.669,9.669-9.669h37.675
	c6.112,0,11.084,4.972,11.084,11.083v0.76c0,3.428-1.566,6.497-4.018,8.532H32.296C29.843,86.368,28.277,83.299,28.277,79.87z"/>
</svg>