<?xml version="1.0" encoding="UTF-8"?>
<svg version="1.1" viewBox="0 0 2048 2048" width="1280" height="1280" xmlns="http://www.w3.org/2000/svg">
<path transform="translate(978,442)" d="m0 0h101l38 7 32 8 17 6 12 6 10 9 6 10 2 7 10 146 1 17v45l-7 28-13 41-14 41-19 52-18 48-4 19-9 68-15 111-10 76-7 52-7 49-5 15-7 11-8 8-11 7-15 5-5 1h-17l-12-3-14-7-12-11-8-13-4-13-4-26-2-14v-5l-5 1-63 4-50 5-38 5-41 7-35 7-48 12-32 10-30 11-25 11-25 13-15 10-11 9-10 10-6 11-1 8 3 9 6 9 11 11 6 5-2 4-12 12-10 13-9 15-6 12-4 10h-4l-13-11-10-9-7-7-11-14-8-13-5-11-4-12-2-9-1-10v-12l3-18 5-15 9-17 9-12 10-12h2l1-3 8-7 16-13 20-13 18-10 16-8 22-10 27-10 33-11 35-10 49-11 43-8 48-7 42-5 48-4 42-2-2-10-10-74-1-5-73 4-51 4-58 6-46 6-52 8-54 10-5 1-2-3-2-17-5-19-7-16-8-14-5-6v-2l38-8 45-8 45-7 63-8 52-5 52-4 57-3h5l-7-53-3-19-5-15-14-33-16-40-12-31-10-29-8-25-7-27-3-18v-35l4-60 7-84 2-31 4-10 10-12 10-6 19-7 24-6 36-7z" fill="#01473D"/>
<path transform="translate(207,1166)" d="m0 0h3l8 15 12 16 7 8 8 7 14 11 4 2v3l-19 11-17 11-16 11-17 13-13 11-12 11-13 13-9 11-9 12-8 13-8 16-6 16-4 21v22l4 20 6 17 11 21 9 13 13 16 14 15 8 7 10 9 17 13 12 9 12 8 19 12 23 13 27 14 29 14 41 17 38 14 35 12 44 13 30 8 36 9 51 11 48 9 65 10 57 7 50 5 54 4 83 4 76 1 53-1 89-4 27-2 1 2 3 24 4 17 6 16 8 16 2 5-39 3-54 3-60 2h-105l-58-2-53-3-51-4-49-5-48-6-55-8-51-9-54-11-58-14-54-15-41-13-37-13-36-14-26-11-28-13-38-19-24-14-21-13-19-13-19-14-13-11-11-9-8-8-8-7-16-17-11-13-12-16-13-21-13-27-8-24-5-25-1-7v-34l3-21 5-20 7-20 11-23 9-15 12-17 13-16 11-12 7-7 5-6 8-7 11-10 28-22 17-12 17-11z" fill="#01473D"/>
<path transform="translate(1189,1169)" d="m0 0 64 8 43 7 45 9 48 12 42 13 32 12 27 12 25 13 16 10 14 10 10 8 12 11 9 9 11 15 9 16 6 18 2 10v26l-3 15-8 20-10 16-9 10-7 8-8 8-17 13-13 9-15 9-23 12-17 8-30 12-36 12-28 8-41 10-45 9-51 8-51 6-45 4-50 3-24 1h-104l-21-1-1-2 8-16 6-19 3-17 1-12v-14l111-1 61-3 56-5 40-5 39-6 50-10 44-11 38-12 27-10 25-11 23-12 15-10 13-10 8-8 6-10 1-3v-11l-5-10-9-10-10-9-17-11-18-10-19-9-27-11-36-12-37-10-34-8-47-9-41-6-43-5-1-1 1-13 8-59z" fill="#01473D"/>
<path transform="translate(1461,1632)" d="m0 0h19l27 2 26 4 20 5 24 8 25 12 15 10 11 9 9 9 10 14 6 14 3 13v12l-3 15-8 16-8 11-13 13-15 11-18 10-19 8-26 8-31 6-30 3h-31l-30-3-26-5-26-8-20-8-18-10-10-7-10-8-11-11-7-10-8-16-3-13v-15l3-13 8-16 10-13 10-10 15-11 17-10 21-9 22-7 22-5 29-4z" fill="#01473D"/>
<path transform="translate(1964,1270)" d="m0 0 3 1 7 11 8 11 10 17 8 16 6 15 6 19 4 20 2 19v23l-4 27-6 22-10 25-10 19-14 21-10 13-11 13-15 16-12 11-11 10-11 9-13 10-17 12-12 8-16 10-15 9-29 16-28 14-36 16-5 1-3-8-8-20-8-15-12-17-8-9 1-3 31-13 39-19 24-13 23-14 18-12 14-10 16-13 14-12 19-19 9-11 10-14 7-11 9-20 4-13 3-13 1-10v-14l-3-19-7-21-12-23-10-14-4-5 1-3 16-8 13-8 11-8 12-10 5-5z" fill="#01473D"/>
<path transform="translate(711,1433)" d="m0 0h44l22 3 23 5 18 6 14 6 14 8 13 10 7 6 8 10 8 16 2 7v18l-4 13-6 11-11 12-10 9-11 7-15 8-19 7-22 6-25 4-10 1h-37l-30-4-20-5-20-7-17-8-12-8-11-9-8-8-9-14-4-10-1-5v-18l4-12 6-11 9-10 9-9 15-10 16-8 21-8 21-5 19-3z" fill="#01473D"/>
<path transform="translate(1213,998)" d="m0 0 64 6 59 7 54 8 63 11 56 12 42 10 51 14 44 14 7 2-2 4-13 11-8 8-10 13-10 16-7 17-6-1-49-14-39-10-49-11-41-8-66-11-61-8-48-5-43-4 1-13 9-66z" fill="#01473D"/>
<path transform="translate(1018,183)" d="m0 0h12l18 3 13 5 11 6 13 10 10 11 8 13 5 11 4 17v29l-2 17-5 21-8 22-9 17-10 14-9 10-10 8-16 8-12 3h-15l-11-3-14-7-12-11-8-8-11-16-9-17-7-18-5-19-3-17-1-11v-15l3-18 5-13 9-16 12-13 10-8 14-8 15-5z" fill="#01473D"/>
<path transform="translate(380,1047)" d="m0 0h34l22 3 19 5 15 6 15 8 15 12 9 12 4 9 2 9-1 12-5 13-8 10-8 8-14 9-17 8-21 6-22 4-11 1h-23l-25-3-20-5-20-8-14-8-11-9-7-8-6-10-3-9v-14l3-10 7-12 11-11 15-10 15-7 15-5 18-4z" fill="#01473D"/>
<path transform="translate(1774,1123)" d="m0 0h42l24 4 20 6 19 9 14 10 9 9 7 11 3 8 1 13-2 10-6 12-9 10-9 8-16 9-15 6-22 6-20 3h-39l-25-4-17-5-18-8-10-6-10-8-7-7-7-11-4-12v-12l4-12 7-11 10-10 13-9 16-8 19-6 20-4z" fill="#01473D"/>
</svg>
