<?xml version="1.0" ?>

<!-- Uploaded to: SVG Repo, www.svgrepo.com, Generator: SVG Repo Mixer Tools -->
<svg fill="#0AF65A" width="800px" height="800px" viewBox="0 0 50 50" xmlns="http://www.w3.org/2000/svg">

<g id="Solid">

<path d="M9,11V46a2.0026,2.0026,0,0,1-2,2H4a2.0026,2.0026,0,0,1-2-2V11A2.0026,2.0026,0,0,1,4,9H7A2.0026,2.0026,0,0,1,9,11ZM46,2H43a2.0026,2.0026,0,0,0-2,2V46a2.0026,2.0026,0,0,0,2,2h3a2.0026,2.0026,0,0,0,2-2V4A2.0026,2.0026,0,0,0,46,2ZM11,20H39v6H22v8h5V32a2,2,0,0,1,2-2h6a2,2,0,0,1,2,2v2a2,2,0,0,1,2,2v2H11V36a1.99139,1.99139,0,0,1,1-1.7226V26H11Zm9,14V31H14v3Zm0-8H14v3h6ZM11,46H39V40H11ZM37,14V12a2,2,0,0,0-2-2H29a2,2,0,0,0-2,2v2H13a2,2,0,0,0-2,2v2H39V16A2,2,0,0,0,37,14Z"/>

</g>

</svg>