<?xml version="1.0" encoding="UTF-8"?>
<svg version="1.1" viewBox="0 0 2048 2048" width="1280" height="1280" xmlns="http://www.w3.org/2000/svg">
<path transform="translate(1438,171)" d="m0 0h26l16 4 16 8 14 11 9 10 8 13 5 12 3 12 1 10 1 1333 281-281 14-11 17-8 11-3 8-1h18l16 3 15 6 12 8 10 9 8 9 9 16 4 11 3 17v12l-3 17-5 13-6 11-7 9-9 10-424 424-14 10-14 7-15 4-6 1h-20l-18-4-16-8-11-8-436-436-7-10-8-16-4-16v-25l4-16 5-12 10-15 11-11 15-10 12-5 11-3 7-1h19l16 3 12 5 12 7 13 11 276 276 2 1v-1336l3-16 6-15 9-14 11-12 14-10 16-7z" fill="#00473E"/>
<path transform="translate(584,171)" d="m0 0h26l16 4 11 5 11 7 14 12 422 422 13 17 6 13 4 14 1 6v20l-3 15-6 15-9 14-4 5-8 7-11 8-13 6-13 4-12 2h-13l-17-3-17-7-13-9-7-6v-2l-4-2-124-124v-2l-4-2v-2l-4-2v-2l-4-2v-2l-4-2v-2l-4-2v-2l-4-2v-2l-4-2v-2l-4-2v-2l-4-2v-2l-4-2v-2l-4-2v-2l-4-2-68-68v-2l-4-2v-2l-4-2v-2l-4-2v-2l-4-2-15-15v-2l-3-1-1 22v1290l-1 28-4 17-8 16-8 11-10 10-14 9-14 6-18 4h-18l-16-3-16-7-11-7-16-16-8-13-5-11-4-20v-1337l-8 7-75 75-5 6-7 6-5 6-7 6-5 6-7 6-5 6-6 5-6 7-7 6-5 6-8 7-91 91-6 7h-2l-2 4h-2l-2 4h-2l-2 4h-2l-1 3-8 7-10 10-10 7-16 8-16 4-10 1h-10l-18-3-16-7-11-7-10-9-8-9-8-14-6-16-2-11v-19l4-18 8-17 10-13 435-435 13-9 13-6z" fill="#00473E"/>
</svg>
